<svg width="36" height="10" viewBox="0 0 36 10" fill="none" xmlns="http://www.w3.org/2000/svg">
<path d="M6.968 9H4.904L2.66 5.388L1.892 5.94V9H0.08V0.431999H1.892V4.356C2.012 4.188 2.132 4.02 2.252 3.852C2.372 3.684 2.492 3.516 2.612 3.348L4.928 0.431999H6.944L3.956 4.224L6.968 9ZM13.2928 9L12.6688 6.96H9.54875L8.92475 9H6.96875L9.99275 0.396H12.2128L15.2488 9H13.2928ZM11.6128 3.444C11.5728 3.308 11.5208 3.136 11.4568 2.928C11.3928 2.72 11.3288 2.508 11.2648 2.292C11.2008 2.076 11.1488 1.888 11.1088 1.728C11.0688 1.888 11.0128 2.088 10.9408 2.328C10.8768 2.56 10.8128 2.784 10.7488 3C10.6928 3.208 10.6488 3.356 10.6168 3.444L10.0048 5.436H12.2368L11.6128 3.444ZM21.3859 6.624C21.3859 7.128 21.2619 7.568 21.0139 7.944C20.7659 8.32 20.4059 8.612 19.9339 8.82C19.4699 9.02 18.9019 9.12 18.2299 9.12C17.9339 9.12 17.6419 9.1 17.3539 9.06C17.0739 9.02 16.8019 8.964 16.5379 8.892C16.2819 8.812 16.0379 8.716 15.8059 8.604V6.912C16.2139 7.088 16.6339 7.252 17.0659 7.404C17.5059 7.548 17.9419 7.62 18.3739 7.62C18.6699 7.62 18.9059 7.58 19.0819 7.5C19.2659 7.42 19.3979 7.312 19.4779 7.176C19.5659 7.04 19.6099 6.884 19.6099 6.708C19.6099 6.492 19.5339 6.308 19.3819 6.156C19.2379 6.004 19.0419 5.864 18.7939 5.736C18.5459 5.6 18.2619 5.456 17.9419 5.304C17.7419 5.208 17.5259 5.096 17.2939 4.968C17.0619 4.832 16.8379 4.668 16.6219 4.476C16.4139 4.276 16.2419 4.036 16.1059 3.756C15.9699 3.476 15.9019 3.14 15.9019 2.748C15.9019 2.236 16.0179 1.8 16.2499 1.44C16.4899 1.072 16.8259 0.791999 17.2579 0.599999C17.6979 0.408 18.2139 0.312 18.8059 0.312C19.2539 0.312 19.6779 0.364 20.0779 0.468C20.4859 0.572 20.9099 0.72 21.3499 0.912L20.7619 2.328C20.3699 2.168 20.0179 2.044 19.7059 1.956C19.3939 1.868 19.0739 1.824 18.7459 1.824C18.5219 1.824 18.3299 1.86 18.1699 1.932C18.0099 2.004 17.8859 2.104 17.7979 2.232C17.7179 2.36 17.6779 2.512 17.6779 2.688C17.6779 2.888 17.7379 3.06 17.8579 3.204C17.9779 3.34 18.1579 3.472 18.3979 3.6C18.6379 3.728 18.9379 3.88 19.2979 4.056C19.7379 4.264 20.1099 4.48 20.4139 4.704C20.7259 4.928 20.9659 5.192 21.1339 5.496C21.3019 5.8 21.3859 6.176 21.3859 6.624ZM26.1473 9H22.2473V7.968L23.2913 7.488V1.944L22.2473 1.464V0.431999H26.1473V1.464L25.1033 1.944V7.488L26.1473 7.968V9ZM35.3833 4.704C35.3833 5.368 35.2993 5.972 35.1313 6.516C34.9713 7.052 34.7233 7.516 34.3873 7.908C34.0593 8.3 33.6353 8.6 33.1153 8.808C32.6033 9.016 31.9993 9.12 31.3033 9.12C30.6073 9.12 29.9993 9.016 29.4793 8.808C28.9673 8.592 28.5433 8.292 28.2073 7.908C27.8793 7.516 27.6313 7.048 27.4633 6.504C27.3033 5.96 27.2233 5.356 27.2233 4.692C27.2233 3.804 27.3673 3.032 27.6553 2.376C27.9513 1.72 28.3993 1.212 28.9993 0.852C29.6073 0.484 30.3793 0.3 31.3153 0.3C32.2433 0.3 33.0073 0.484 33.6073 0.852C34.2073 1.212 34.6513 1.724 34.9393 2.388C35.2353 3.044 35.3833 3.816 35.3833 4.704ZM29.1313 4.704C29.1313 5.304 29.2073 5.82 29.3593 6.252C29.5113 6.684 29.7473 7.016 30.0673 7.248C30.3873 7.48 30.7993 7.596 31.3033 7.596C31.8233 7.596 32.2393 7.48 32.5513 7.248C32.8713 7.016 33.1033 6.684 33.2473 6.252C33.3993 5.82 33.4753 5.304 33.4753 4.704C33.4753 3.8 33.3073 3.092 32.9713 2.58C32.6353 2.068 32.0833 1.812 31.3153 1.812C30.8033 1.812 30.3873 1.928 30.0673 2.16C29.7473 2.392 29.5113 2.724 29.3593 3.156C29.2073 3.588 29.1313 4.104 29.1313 4.704Z" fill="#E07E1B"/>
</svg>
